inDegrees=no
num_controls=7
num_derivatives=13
num_iterations=142
num_multipliers=7
num_parameters=0
num_slacks=7
num_states=26
objective=5.761553
objective_accelerations=0.685687
objective_balance=0.015462
objective_effort=0.488854
objective_height=4.524313
objective_ligament=0.047236
solver_duration=1248.826283
status=Solve_Succeeded
success=true
DataType=double
version=3
OpenSimVersion=4.4-2022-07-23-0e9fedc
endheader
time	/jointset/ground_pelvis/pelvis_tilt/value	/jointset/ground_pelvis/pelvis_tx/value	/jointset/ground_pelvis/pelvis_ty/value	/jointset/hip_r/hip_flexion_r/value	/jointset/hip_r/hip_adduction_r/value	/jointset/hip_r/hip_rotation_r/value	/jointset/back/lumbar_extension/value	/jointset/patellofemoral_r/patellar_flexion_r/value	/jointset/knee_r/knee_flexion_r/value	/jointset/knee_r/knee_adduction_r/value	/jointset/knee_r/knee_rotation_r/value	/jointset/ankle_r/ankle_angle_r/value	/jointset/subtalar_r/subtalar_angle_r/value	/jointset/ground_pelvis/pelvis_tilt/speed	/jointset/ground_pelvis/pelvis_tx/speed	/jointset/ground_pelvis/pelvis_ty/speed	/jointset/hip_r/hip_flexion_r/speed	/jointset/hip_r/hip_adduction_r/speed	/jointset/hip_r/hip_rotation_r/speed	/jointset/back/lumbar_extension/speed	/jointset/patellofemoral_r/patellar_flexion_r/speed	/jointset/knee_r/knee_flexion_r/speed	/jointset/knee_r/knee_adduction_r/speed	/jointset/knee_r/knee_rotation_r/speed	/jointset/ankle_r/ankle_angle_r/speed	/jointset/subtalar_r/subtalar_angle_r/speed	/forceset/tau_hip_flexion_r	/forceset/tau_hip_adduction_r	/forceset/tau_hip_rotation_r	/forceset/tau_knee_flexion_r	/forceset/tau_ankle_angle_r	/forceset/tau_subtalar_angle_r	/forceset/tau_lumbar_extension	lambda_cid13_p0	lambda_cid14_p0	lambda_cid14_p1	lambda_cid14_p2	lambda_cid14_p3	lambda_cid14_p4	lambda_cid14_p5	/jointset/ground_pelvis/pelvis_tilt/accel	/jointset/ground_pelvis/pelvis_tx/accel	/jointset/ground_pelvis/pelvis_ty/accel	/jointset/hip_r/hip_flexion_r/accel	/jointset/hip_r/hip_adduction_r/accel	/jointset/hip_r/hip_rotation_r/accel	/jointset/back/lumbar_extension/accel	/jointset/patellofemoral_r/patellar_flexion_r/accel	/jointset/knee_r/knee_flexion_r/accel	/jointset/knee_r/knee_adduction_r/accel	/jointset/knee_r/knee_rotation_r/accel	/jointset/ankle_r/ankle_angle_r/accel	/jointset/subtalar_r/subtalar_angle_r/accel	gamma_cid13_p0	gamma_cid14_p0	gamma_cid14_p1	gamma_cid14_p2	gamma_cid14_p3	gamma_cid14_p4	gamma_cid14_p5
0.5	-0.1579983282076307	0.01581191508203383	0.7929266626733176	0.9550093500305741	-0.2210931179117375	-0.1248220393387484	-0.6550489188053294	0.9995019287119326	0.9995019287118917	-0.06767197328356479	0.1745326811915315	0.2981515325135573	0.1428594915756022	-0.4146273666690929	-0.214639354457246	-0.5579799613333868	2.032934935343628	-0.03702610853102246	0.2140809368364013	-0.7321405091964067	2.048164895841186	2.048164895841145	-0.4198146366545902	-5.755815027497346e-05	0.5320387022143931	0.1560551361764278	-0.2101511667620906	0.00560204208739505	0.01681838776186405	-0.2960490449955735	0.009789532368829094	0.003960903940836911	0.2490153109419775	-6.378677106666586	-39.03210786979103	-4.327656914478538	0.2136660499157364	-5.666274081073049	-640.2841643456388	64.69018938053627	0.4488207289186085	0.6795917441923121	-0.4535315818269897	-1.406363044876459	-0.1848716288916446	-0.4990828406365055	1.97227869629085	-1.439433297724228	-1.439433297724224	0.5083461187697389	-0.03166590944527647	-0.6471012307779188	-0.3918640847436561	-1.037236944477964e-07	2.241553477786282e-08	1.615822493719968e-06	-1.556840706965195e-07	-1.778368350814827e-07	-2.001675196249328e-07	1.113468142827647e-06
0.51	-0.1621212727636916	0.01369968834027872	0.7873255039052129	0.9752652462968695	-0.2214730553433382	-0.1227077504399143	-0.662271234725155	1.019908419758772	1.01990841975873	-0.07184450776186795	0.1745325161155704	0.303438463823882	0.1443992098599468	-0.4098945458141207	-0.207788025154158	-0.5621238712181166	2.017969665589345	-0.03896111652927842	0.2088492132450624	-0.7122462649432748	2.03286232833988	2.032862328339847	-0.4145830525438981	8.910163337696627e-06	0.525263358156734	0.1518358496223236	-0.2169148465064249	0.005927512075543239	0.01714645236840303	-0.301688853202394	0.009251690057283705	0.004482478242729599	0.255310829171588	-5.500842248458818	-39.54151352193451	-4.331255445559924	0.3752091570317123	-5.711839309188525	-645.8601631546113	65.39040879440759	0.4955798829879821	0.6905453586629444	-0.3756634040541962	-1.582788635715869	-0.1975829975075786	-0.5244583710643851	2.009458763666794	-1.616303419804801	-1.61630341980369	0.5472121728754556	0.02363728432588834	-0.7054392276293393	-0.4444759464048637	-5.960210426898341e-08	1.243452122782381e-07	1.97418900886638e-06	6.447080416979581e-07	-2.690216352089101e-07	-1.469769314495391e-07	1.411321902064474e-06
0.52	-0.1661948756873633	0.0116565032586136	0.7816867374958094	0.9953632539266187	-0.2218722963773653	-0.1206436270275273	-0.669292315907681	1.040153758141897	1.04015375814187	-0.07596139687593506	0.1745325825393059	0.3086551040467561	0.1458952322776181	-0.4047590401910875	-0.2008310224392456	-0.5655014895931681	2.001357208034594	-0.0408868290161364	0.2040478395464519	-0.691893561736443	2.01593436309973	2.015934363099705	-0.4086855638069464	-1.125822060005019e-05	0.5179804847242978	0.1473159628417788	-0.2236785262507606	0.006252982063699762	0.01747451697502185	-0.3073286614092059	0.008713847745740728	0.005004052544634762	0.2616063474011963	-4.690955396321229	-40.046924499941	-4.325471609858616	0.5253401758593365	-5.792021369787258	-651.4025164392111	66.118195116132	0.5293576825308275	0.7007264265571773	-0.3002732798913615	-1.735800604970165	-0.1830125266119686	-0.4130128620906905	2.06397048703083	-1.764512845493108	-1.764512845493108	0.6415270440216171	-0.04899324895555295	-0.7486071057333347	-0.4519841300316743	-5.036849859770389e-08	1.352492020697586e-07	1.931975797260915e-06	7.038917546276513e-07	-2.723428772146124e-07	-1.320533670816299e-07	1.418030911366226e-06
0.53	-0.1702151786535386	0.009683306850959675	0.7760180315847671	1.015287168290502	-0.2222905727862373	-0.1186260495964782	-0.6761076922262953	1.060221835884744	1.060221835884787	-0.08001689977886742	0.1745322301947497	0.3137964863021134	0.1473448478682418	-0.3992365660794268	-0.1938006891399876	-0.5681101807903275	1.983167078112413	-0.04275526045021934	0.1994746303149278	-0.6711213796007085	1.997419623528887	1.997419623528876	-0.4023804152619769	-4.833808768558873e-05	0.510219641285421	0.1425773265666812	-0.2304249284471493	0.006863687187420253	0.01768816651472301	-0.3127846079541815	0.007744461577011445	0.005355120465161668	0.267797493652859	-3.949028606882348	-40.71182035328115	-4.427252698449772	0.6990028445291926	-5.647429774248299	-656.9569459924087	66.60448659812279	0.5734600244218219	0.7052674568219778	-0.2217651088356395	-1.899386050698089	-0.186582641471191	-0.4785044215231142	2.092890434725952	-1.93417970024144	-1.934179700239254	0.6304463505905988	0.02077102292033011	-0.8013243996997116	-0.4888915269191735	-3.978355257383217e-08	1.453480078316061e-07	1.868619276493781e-06	7.527026063513138e-07	-2.731319510187061e-07	-1.183417169056648e-07	1.416722646740497e-06
0.54	-0.1741783033288102	0.007780629911340667	0.7703271191479116	1.03502142798219	-0.2227270983473819	-0.1166540101513198	-0.6827135370519761	1.080096921194407	1.080096921194529	-0.08400826367817626	0.1745318743272451	0.3188579598357357	0.1487462594659804	-0.393323382010237	-0.186727128832262	-0.5699427947557856	1.963426273595995	-0.04453665947088316	0.1949402423698074	-0.6499872631497234	1.977335876463584	1.977335876463587	-0.395857763082765	-1.196281455518894e-05	0.5019987403771501	0.1376751642647674	-0.237171330643546	0.007474392311113911	0.01790181605446598	-0.3182405544991506	0.006775075408276317	0.005706188385643177	0.2739886399045162	-3.274598950251555	-41.37391006749666	-4.521117946052025	0.8629242916551099	-5.535091421648382	-662.4920637656882	67.11283029256616	0.6074996740366905	0.7093718282506578	-0.1450578335510908	-2.045935523817377	-0.1656060439281317	-0.4052486048099547	2.136357350080939	-2.078314344385063	-2.078314344385066	0.6850277708700877	-0.0343022209123506	-0.8406185996121467	-0.4846893353949286	-2.770350658539033e-08	1.545559716882834e-07	1.781870158356287e-06	7.900371009959636e-07	-2.711194770252754e-07	-1.059709079633399e-07	1.40654420670564e-06
